<svg width="40" height="44" viewBox="0 0 40 44" fill="none" xmlns="http://www.w3.org/2000/svg">
<g filter="url(#filter0_d)">
<g filter="url(#filter1_d)">
<path d="M30.0568 32.8347C27.3896 35.502 23.772 37.0004 19.9999 37.0004C16.2279 37.0004 12.6103 35.502 9.94304 32.8347C7.27579 30.1675 5.77734 26.5499 5.77734 22.7778C5.77734 19.0058 7.27579 15.3882 9.94304 12.721C9.94304 12.721 11.111 15.6667 14.6666 17.4445C14.6666 13.889 15.5801 6.55556 19.9997 3C24.3114 10.2187 34.2338 13.1851 34.2222 22.7778C34.2247 24.6459 33.8579 26.4961 33.1431 28.222C32.4283 29.9479 31.3794 31.5155 30.0568 32.8347Z" fill="white"/>
</g>
<path d="M16.2292 28.3262C16.8485 28.9457 17.611 29.4031 18.4491 29.658C19.2872 29.9129 20.1752 29.9574 21.0346 29.7876C21.894 29.6179 22.6984 29.239 23.3766 28.6845C24.0548 28.1301 24.586 27.4171 24.9232 26.6086C25.2605 25.8001 25.3933 24.9209 25.3101 24.0489C25.2269 23.1768 24.9302 22.3387 24.4462 21.6085C23.9621 20.8784 23.3057 20.2787 22.5348 19.8625C21.764 19.4463 20.9025 19.2264 20.0265 19.2222L18.2221 24.5555H14.6665C14.6665 25.9208 15.1874 27.2862 16.2292 28.3262Z" fill="#F4761A"/>
</g>
<defs>
<filter id="filter0_d" x="-3" y="0" width="46" height="46" filterUnits="userSpaceOnUse" color-interpolation-filters="sRGB">
<feFlood flood-opacity="0" result="BackgroundImageFix"/>
<feColorMatrix in="SourceAlpha" type="matrix" values="0 0 0 0 0 0 0 0 0 0 0 0 0 0 0 0 0 0 127 0"/>
<feOffset dy="2"/>
<feGaussianBlur stdDeviation="2.5"/>
<feColorMatrix type="matrix" values="0 0 0 0 0 0 0 0 0 0 0 0 0 0 0 0 0 0 0.7 0"/>
<feBlend mode="normal" in2="BackgroundImageFix" result="effect1_dropShadow"/>
<feBlend mode="normal" in="SourceGraphic" in2="effect1_dropShadow" result="shape"/>
</filter>
<filter id="filter1_d" x="5.77734" y="3" width="28.4448" height="34.0004" filterUnits="userSpaceOnUse" color-interpolation-filters="sRGB">
<feFlood flood-opacity="0" result="BackgroundImageFix"/>
<feColorMatrix in="SourceAlpha" type="matrix" values="0 0 0 0 0 0 0 0 0 0 0 0 0 0 0 0 0 0 127 0"/>
<feOffset/>
<feColorMatrix type="matrix" values="0 0 0 0 1 0 0 0 0 1 0 0 0 0 1 0 0 0 0.75 0"/>
<feBlend mode="normal" in2="BackgroundImageFix" result="effect1_dropShadow"/>
<feBlend mode="normal" in="SourceGraphic" in2="effect1_dropShadow" result="shape"/>
</filter>
</defs>
</svg>
